<svg xmlns="http://www.w3.org/2000/svg" width="144" height="56">
  <rect width="94" height="56" fill="#000000"/>
  <g fill="#ffffff">
    <polygon points="-41.007 39 -33.007 47 -22.007 36 -11.006 47 -3.007 39 -14.007 28 -3.007 17 -11.006 9 -22.007 20 -33.007 9 -41.007 17 -30.006 28 -41.007 39"/>
    <polygon points="3 39 11 47 22 36 33 47 41 39 30 28 41 17 33 9 22 20 11 9 3 17 14 28 3 39"/>
    <polygon points="47.007 39 55.006 47 66.007 36 77.007 47 85.007 39 74.006 28 85.007 17 77.007 9 66.007 20 55.006 9 47.007 17 58.007 28 47.007 39"/>
  </g>
</svg>
