<svg xmlns="http://www.w3.org/2000/svg" width="144" height="56">
  <rect width="138" height="56" fill="#000000"/>
  <g fill="#ffffff">
    <polygon points="2.993 39 10.993 47 21.993 36 32.994 47 40.993 39 29.993 28 40.993 17 32.994 9 21.993 20 10.993 9 2.993 17 13.994 28 2.993 39"/>
    <polygon points="47 39 55 47 66 36 77 47 85 39 74 28 85 17 77 9 66 20 55 9 47 17 58 28 47 39"/>
    <polygon points="91.007 39 99.006 47 110.007 36 121.007 47 129.007 39 118.006 28 129.007 17 121.007 9 110.007 20 99.006 9 91.007 17 102.007 28 91.007 39"/>
  </g>
</svg>
