<svg xmlns="http://www.w3.org/2000/svg" width="144" height="56">
  <rect width="144" height="56" fill="#000000"/>
  <g fill="#ffffff">
    <polygon points="8.993 39 16.993 47 27.993 36 38.994 47 46.993 39 35.993 28 46.993 17 38.994 9 27.993 20 16.993 9 8.993 17 19.994 28 8.993 39"/>
    <polygon points="53 39 61 47 72 36 83 47 91 39 80 28 91 17 83 9 72 20 61 9 53 17 64 28 53 39"/>
    <polygon points="97.007 39 105.006 47 116.007 36 127.007 47 135.007 39 124.006 28 135.007 17 127.007 9 116.007 20 105.006 9 97.007 17 108.007 28 97.007 39"/>
  </g>
</svg>
