<svg xmlns="http://www.w3.org/2000/svg" width="144" height="56">
  <rect width="116" height="56" fill="#000000"/>
  <g fill="#ffffff">
    <polygon points="0 6.707 0 49.295 3.779 49.625 5.135 34.129 20.633 35.484 21.619 24.215 6.121 22.857 7.477 7.359 0 6.707"/>
    <polygon points="36.516 48.64 47.786 49.626 49.142 34.128 64.64 35.484 65.626 24.214 50.128 22.858 51.484 7.36 40.214 6.374 38.858 21.872 23.36 20.516 22.374 31.786 37.872 33.142 36.516 48.64"/>
    <polygon points="80.523 48.64 91.793 49.626 93.149 34.128 108.646 35.484 109.632 24.214 94.135 22.858 95.49 7.36 84.22 6.374 82.865 21.872 67.367 20.516 66.381 31.786 81.879 33.142 80.523 48.64"/>
  </g>
</svg>
