<svg xmlns="http://www.w3.org/2000/svg" width="144" height="56">
  <rect width="138" height="56" fill="#000"/>
  <g fill="#fff">
    <polygon points="23.934 6.131 18.613 20.75 3.994 15.43 .125 26.061 14.744 31.381 9.422 46 20.053 49.869 25.375 35.25 39.992 40.57 43.863 29.939 29.244 24.619 34.564 10 23.934 6.131"/>
    <polygon points="53.429 46 64.06 49.869 69.381 35.25 84 40.571 87.869 29.94 73.25 24.619 78.571 10 67.94 6.131 62.619 20.75 48 15.429 44.131 26.06 58.75 31.381 53.429 46"/>
    <polygon points="97.436 46 108.066 49.869 113.387 35.25 128.006 40.571 131.875 29.94 117.257 24.619 122.577 10 111.947 6.131 106.626 20.75 92.007 15.429 88.138 26.06 102.756 31.381 97.436 46"/>
  </g>
</svg>
