<?xml version="1.0" encoding="UTF-8" standalone="no"?>
<svg
 xmlns:dc="http://purl.org/dc/elements/1.1/"
 xmlns:cc="http://creativecommons.org/ns#"
 xmlns:rdf="http://www.w3.org/1999/02/22-rdf-syntax-ns#"
 xmlns:svg="http://www.w3.org/2000/svg"
 xmlns="http://www.w3.org/2000/svg"
 version="1.1"
 id="svg2"
 height="56"
 width="144">
<defs
 id="defs4" />
<metadata
 id="metadata7">
<rdf:RDF>
<cc:Work
 rdf:about="">
<dc:format>image/svg+xml</dc:format>
<dc:type
 rdf:resource="http://purl.org/dc/dcmitype/StillImage" />
<dc:title></dc:title>
</cc:Work>
</rdf:RDF>
</metadata>
<path
 id="rect3339"
 d="M 0 0 L 0 56 L 138 56 L 138 0 L 0 0 z "
 style="color:#000000;display:inline;overflow:visible;visibility:visible;opacity:1;fill:#000000;fill-opacity:1;fill-rule:nonzero;marker:none;enable-background:accumulate" />
<path
 id="rect3337"
 d="M 23.933594 6.1308594 L 18.613281 20.75 L 3.9941406 15.429688 L 0.125 26.060547 L 14.744141 31.380859 L 9.421875 46 L 20.052734 49.869141 L 25.375 35.25 L 39.992188 40.570312 L 43.863281 29.939453 L 29.244141 24.619141 L 34.564453 10 L 23.933594 6.1308594 z "
 style="color:#000000;display:inline;overflow:visible;visibility:visible;opacity:1;fill:#ffffff;fill-opacity:1;fill-rule:nonzero;marker:none;enable-background:accumulate" />
<path
 style="color:#000000;display:inline;overflow:visible;visibility:visible;fill:#ffffff;fill-opacity:1;fill-rule:nonzero;stroke:none;stroke-width:10;stroke-linecap:square;stroke-miterlimit:4;stroke-dasharray:none;stroke-opacity:1;marker:none;enable-background:accumulate"
 d="M 53.429152,45.999554 64.059936,49.868849 69.380748,35.250043 83.999564,40.570847 87.868848,29.94006 73.250048,24.619248 78.570854,10.000446 67.94007,6.1311513 62.619249,20.749961 48.000442,15.429153 44.131158,26.05994 58.749956,31.380753 53.429152,45.999554 Z"
 id="path3342" />
<path
 style="color:#000000;display:inline;overflow:visible;visibility:visible;fill:#ffffff;fill-opacity:1;fill-rule:nonzero;stroke:none;stroke-width:10;stroke-linecap:square;stroke-miterlimit:4;stroke-dasharray:none;stroke-opacity:1;marker:none;enable-background:accumulate"
 d="m 97.435679,45.999554 10.630791,3.869293 5.32081,-14.618806 14.61882,5.320803 3.86928,-10.630784 -14.6188,-5.320812 5.3208,-14.618802 L 111.9466,6.1311483 106.62578,20.749959 92.006971,15.429152 88.137685,26.05994 102.75649,31.380747 97.435679,45.999554 Z"
 id="path6986" />
</svg>
