<?xml version="1.0" encoding="UTF-8" standalone="no"?>
<svg
 xmlns:dc="http://purl.org/dc/elements/1.1/"
 xmlns:cc="http://creativecommons.org/ns#"
 xmlns:rdf="http://www.w3.org/1999/02/22-rdf-syntax-ns#"
 xmlns:svg="http://www.w3.org/2000/svg"
 xmlns="http://www.w3.org/2000/svg"
 version="1.1"
 id="svg2"
 height="56"
 width="144">
<defs
 id="defs4" />
<metadata
 id="metadata7">
<rdf:RDF>
<cc:Work
 rdf:about="">
<dc:format>image/svg+xml</dc:format>
<dc:type
 rdf:resource="http://purl.org/dc/dcmitype/StillImage" />
<dc:title></dc:title>
</cc:Work>
</rdf:RDF>
</metadata>
<path
 style="color:#000000;display:inline;overflow:visible;visibility:visible;fill:#ffffff;fill-opacity:1;fill-rule:nonzero;stroke:none;stroke-width:10;stroke-linecap:square;stroke-miterlimit:4;stroke-dasharray:none;stroke-opacity:1;marker:none;enable-background:accumulate"
 d="M 22.293469,31.300139 24.693329,33.7 27.99347,30.39986 31.293611,33.7 33.693469,31.300139 30.393332,28 33.693469,24.69986 31.293611,22.3 27.99347,25.600139 24.693329,22.3 22.293469,24.69986 25.593608,28 22.293469,31.300139 Z"
 id="path3344" />
<path
 style="color:#000000;display:inline;overflow:visible;visibility:visible;fill:#ffffff;fill-opacity:1;fill-rule:nonzero;stroke:none;stroke-width:10;stroke-linecap:square;stroke-miterlimit:4;stroke-dasharray:none;stroke-opacity:1;marker:none;enable-background:accumulate"
 d="M 66.300003,31.300139 68.699861,33.7 72.000001,30.39986 75.300145,33.7 77.700003,31.300139 74.399865,28 77.700003,24.69986 75.300145,22.3 72.000001,25.600139 68.699861,22.3 66.300003,24.69986 69.60014,28 66.300003,31.300139 Z"
 id="path3342" />
<path
 style="color:#000000;display:inline;overflow:visible;visibility:visible;fill:#ffffff;fill-opacity:1;fill-rule:nonzero;stroke:none;stroke-width:10;stroke-linecap:square;stroke-miterlimit:4;stroke-dasharray:none;stroke-opacity:1;marker:none;enable-background:accumulate"
 d="M 110.30653,31.300139 112.70639,33.7 116.00653,30.39986 119.30667,33.7 121.70653,31.300139 118.40639,28 121.70653,24.69986 119.30667,22.3 116.00653,25.600139 112.70639,22.3 110.30653,24.69986 113.60667,28 l -3.30014,3.300139 z"
 id="path6986" />
</svg>
