<?xml version="1.0" encoding="UTF-8" standalone="no"?>
<svg
 xmlns:dc="http://purl.org/dc/elements/1.1/"
 xmlns:cc="http://creativecommons.org/ns#"
 xmlns:rdf="http://www.w3.org/1999/02/22-rdf-syntax-ns#"
 xmlns:svg="http://www.w3.org/2000/svg"
 xmlns="http://www.w3.org/2000/svg"
 width="144"
 height="56"
 id="svg2"
 version="1.1">
<defs
 id="defs4" />
<metadata
 id="metadata7">
<rdf:RDF>
<cc:Work
 rdf:about="">
<dc:format>image/svg+xml</dc:format>
<dc:type
 rdf:resource="http://purl.org/dc/dcmitype/StillImage" />
<dc:title></dc:title>
</cc:Work>
</rdf:RDF>
</metadata>
<rect
 y="-4.2188475e-15"
 x="-4.0698242e-07"
 height="56.000008"
 width="144"
 id="rect6274"
 style="color:#000000;display:inline;overflow:visible;visibility:visible;opacity:1;fill:#000000;fill-opacity:1;fill-rule:nonzero;marker:none;enable-background:accumulate" />
<path
 id="path3344"
 d="M 8.9934688,39.000465 16.993004,47 27.993472,35.999535 38.993942,47 46.993469,39.000465 35.993011,28 46.993469,16.999535 38.993942,9 27.993472,20.000465 16.993004,9 8.9934688,16.999535 19.993934,28 8.9934688,39.000465 Z"
 style="color:#000000;display:inline;overflow:visible;visibility:visible;fill:#ffffff;fill-opacity:1;fill-rule:nonzero;stroke:none;stroke-width:10;stroke-linecap:square;stroke-miterlimit:4;stroke-dasharray:none;stroke-opacity:1;marker:none;enable-background:accumulate" />
<path
 id="path3342"
 d="M 53.000003,39.000465 60.99953,47 71.999998,35.999535 83.000476,47 91.000003,39.000465 79.999543,28 91.000003,16.999535 83.000476,9 71.999998,20.000465 60.99953,9 53.000003,16.999535 64.000461,28 53.000003,39.000465 Z"
 style="color:#000000;display:inline;overflow:visible;visibility:visible;fill:#ffffff;fill-opacity:1;fill-rule:nonzero;stroke:none;stroke-width:10;stroke-linecap:square;stroke-miterlimit:4;stroke-dasharray:none;stroke-opacity:1;marker:none;enable-background:accumulate" />
<path
 id="path6986"
 d="M 97.00653,39.000465 105.00606,47 116.00653,35.999535 127.00701,47 135.00653,39.000465 124.00607,28 135.00653,16.999535 127.00701,9 116.00653,20.000465 105.00606,9 97.00653,16.999535 108.007,28 97.00653,39.000465 Z"
 style="color:#000000;display:inline;overflow:visible;visibility:visible;fill:#ffffff;fill-opacity:1;fill-rule:nonzero;stroke:none;stroke-width:10;stroke-linecap:square;stroke-miterlimit:4;stroke-dasharray:none;stroke-opacity:1;marker:none;enable-background:accumulate" />
</svg>
