<svg xmlns="http://www.w3.org/2000/svg" width="180" height="60">
  <g fill="#ffffff">
    <polygon points="33.627 32.528 35.465 34.367 37.993 31.839 40.522 34.367 42.36 32.528 39.832 30 42.36 27.472 40.522 25.633 37.993 28.161 35.465 25.633 33.627 27.472 36.155 30 33.627 32.528"/>
    <polygon points="85.633 32.528 87.472 34.367 90 31.839 92.528 34.367 94.367 32.528 91.839 30 94.367 27.472 92.528 25.633 90 28.161 87.472 25.633 85.633 27.472 88.161 30 85.633 32.528"/>
    <polygon points="137.64 32.528 139.478 34.367 142.007 31.839 144.535 34.367 146.373 32.528 143.845 30 146.373 27.472 144.535 25.633 142.007 28.161 139.478 25.633 137.64 27.472 140.168 30 137.64 32.528"/>
  </g>
</svg>
