<svg xmlns="http://www.w3.org/2000/svg" width="180" height="60">
  <g fill="#ffffff">
    <polygon points="29.26 35.056 32.937 38.733 37.993 33.677 43.05 38.733 46.727 35.056 41.67 30 46.727 24.944 43.05 21.267 37.993 26.323 32.937 21.267 29.26 24.944 34.316 30 29.26 35.056"/>
    <polygon points="81.267 35.056 84.944 38.733 90 33.677 95.056 38.733 98.733 35.056 93.677 30 98.733 24.944 95.056 21.267 90 26.323 84.944 21.267 81.267 24.944 86.323 30 81.267 35.056"/>
    <polygon points="133.273 35.056 136.95 38.733 142.007 33.677 147.063 38.733 150.74 35.056 145.684 30 150.74 24.944 147.063 21.267 142.007 26.323 136.95 21.267 133.273 24.944 138.33 30 133.273 35.056"/>
  </g>
</svg>
