<svg xmlns="http://www.w3.org/2000/svg" width="180" height="60">
  <rect width="180" height="60" fill="#000000"/>
  <g fill="#ffffff">
    <polygon points="20.527 40.113 27.881 47.467 37.993 37.354 48.106 47.467 55.46 40.113 45.348 30 55.46 19.887 48.106 12.533 37.993 22.646 27.881 12.533 20.527 19.887 30.639 30 20.527 40.113"/>
    <polygon points="72.533 40.113 79.887 47.467 90 37.354 100.113 47.467 107.467 40.113 97.354 30 107.467 19.887 100.113 12.533 90 22.646 79.887 12.533 72.533 19.887 82.646 30 72.533 40.113"/>
    <polygon points="124.54 40.113 131.894 47.467 142.007 37.354 152.119 47.467 159.473 40.113 149.361 30 159.473 19.887 152.119 12.533 142.007 22.646 131.894 12.533 124.54 19.887 134.652 30 124.54 40.113"/>
  </g>
</svg>
