<svg xmlns="http://www.w3.org/2000/svg" width="180" height="60">
  <rect x="0" y="0" width="165" height="60" fill="#000000"/>
  <g fill="#ffffff">
    <polygon points="1.16 42.641 10.352 51.834 22.993 39.193 35.635 51.834 44.827 42.641 32.186 30 44.827 17.359 35.635 8.166 22.993 20.807 10.352 8.166 1.16 17.359 13.801 30 1.16 42.641"/>
    <polygon points="53.166 42.641 62.359 51.834 75 39.193 87.641 51.834 96.834 42.641 84.193 30 96.834 17.359 87.641 8.166 75 20.807 62.359 8.166 53.166 17.359 65.807 30 53.166 42.641"/>
    <polygon points="105.173 42.641 114.365 51.834 127.007 39.193 139.648 51.834 148.84 42.641 136.199 30 148.84 17.359 139.648 8.166 127.007 20.807 114.365 8.166 105.173 17.359 117.814 30 105.173 42.641"/>
  </g>
</svg>
