<svg xmlns="http://www.w3.org/2000/svg" width="180" height="60">
  <rect width="180" height="60" fill="#000"/>
  <g fill="#fff">
    <polygon points="16.16 42.641 25.352 51.834 37.993 39.193 50.635 51.834 59.827 42.641 47.186 30 59.827 17.359 50.635 8.166 37.993 20.807 25.352 8.166 16.16 17.359 28.801 30 16.16 42.641"/>
    <polygon points="68.166 42.641 77.359 51.834 90 39.193 102.641 51.834 111.834 42.641 99.193 30 111.834 17.359 102.641 8.166 90 20.807 77.359 8.166 68.166 17.359 80.807 30 68.166 42.641"/>
    <polygon points="120.173 42.641 129.365 51.834 142.007 39.193 154.648 51.834 163.84 42.641 151.199 30 163.84 17.359 154.648 8.166 142.007 20.807 129.365 8.166 120.173 17.359 132.814 30 120.173 42.641"/>
  </g>
</svg>
