<svg xmlns="http://www.w3.org/2000/svg" width="180" height="60">
  <rect x="0" y="0" width="80" height="60" fill="#000000"/>
  <g fill="#ffffff">
    <polygon points="-37.156 34.351 -38.289 21.4 -56.098 22.958 -57.656 5.149 -70.607 6.282 -69.048 24.091 -86.858 25.649 -85.725 38.6 -67.915 37.042 -66.357 54.851 -53.407 53.718 -54.965 35.909 -37.156 34.351"/>
    <polygon points="14.851 34.351 13.718 21.4 -4.091 22.958 -5.649 5.149 -18.6 6.282 -17.042 24.091 -34.851 25.649 -33.718 38.6 -15.909 37.042 -14.351 54.851 -1.4 53.718 -2.958 35.909 14.851 34.351"/>
    <polygon points="66.858 34.351 65.724 21.4 47.915 22.958 46.357 5.149 33.407 6.282 34.965 24.091 17.156 25.649 18.289 38.6 36.098 37.042 37.656 54.851 50.607 53.718 49.048 35.909 66.858 34.351"/>
  </g>
</svg>
