<svg xmlns="http://www.w3.org/2000/svg" width="180" height="60">
  <rect x="0" y="0" width="110" height="60" fill="#000000"/>
  <g fill="#ffffff">
    <polygon points="-15.766 49.307 -8.31 38.658 -22.954 28.404 -12.7 13.76 -23.349 6.303 -33.603 20.947 -48.247 10.693 -55.704 21.342 -41.059 31.596 -51.313 46.24 -40.664 53.697 -30.41 39.053 -15.766 49.307"/>
    <polygon points="36.24 49.307 43.697 38.658 29.053 28.404 39.307 13.76 28.658 6.303 18.404 20.947 3.76 10.693 -3.697 21.342 10.947 31.596 .693 46.24 11.342 53.697 21.596 39.053 36.24 49.307"/>
    <polygon points="88.247 49.307 95.704 38.658 81.059 28.404 91.313 13.76 80.664 6.303 70.41 20.947 55.766 10.693 48.31 21.342 62.954 31.596 52.7 46.24 63.349 53.697 73.603 39.053 88.247 49.307"/>
  </g>
</svg>
