<svg xmlns="http://www.w3.org/2000/svg" width="180" height="60">
  <rect width="150" height="60" fill="#000"/>
  <g fill="#fff">
    <polygon points="-.607 53.718 12.344 54.851 13.902 37.042 31.711 38.6 32.844 25.649 15.035 24.091 16.593 6.282 3.643 5.149 2.085 22.958 -15.724 21.4 -16.858 34.351 .952 35.909 -.607 53.718"/>
    <polygon points="51.4 53.718 64.351 54.851 65.909 37.042 83.718 38.6 84.851 25.649 67.042 24.091 68.6 6.282 55.649 5.149 54.091 22.958 36.282 21.4 35.149 34.351 52.958 35.909 51.4 53.718"/>
    <polygon points="103.407 53.718 116.357 54.851 117.915 37.042 135.724 38.6 136.858 25.649 119.048 24.091 120.607 6.282 107.656 5.149 106.098 22.958 88.289 21.4 87.156 34.351 104.965 35.909 103.407 53.718"/>
  </g>
</svg>
