<svg xmlns="http://www.w3.org/2000/svg" width="180" height="60">
  <rect width="170" height="60" fill="#000000"/>
  <g fill="#ffffff">
    <polygon points="11.8 49.346 23.582 54.84 31.138 38.638 47.34 46.193 52.834 34.411 36.632 26.856 44.187 10.654 32.405 5.16 24.849 21.362 8.647 13.807 3.153 25.589 19.355 33.144 11.8 49.346"/>
    <polygon points="63.807 49.346 75.589 54.84 83.144 38.638 99.346 46.193 104.84 34.411 88.638 26.856 96.193 10.654 84.411 5.16 76.856 21.362 60.654 13.807 55.16 25.589 71.362 33.144 63.807 49.346"/>
    <polygon points="115.813 49.346 127.595 54.84 135.151 38.638 151.353 46.193 156.847 34.411 140.645 26.856 148.2 10.654 136.418 5.16 128.862 21.362 112.66 13.807 107.166 25.589 123.368 33.144 115.813 49.346"/>
  </g>
</svg>
