<?xml version="1.0" encoding="UTF-8" standalone="no"?>
<svg
 xmlns:dc="http://purl.org/dc/elements/1.1/"
 xmlns:cc="http://creativecommons.org/ns#"
 xmlns:rdf="http://www.w3.org/1999/02/22-rdf-syntax-ns#"
 xmlns:svg="http://www.w3.org/2000/svg"
 xmlns="http://www.w3.org/2000/svg"
 version="1.1"
 id="svg2"
 height="56"
 width="144">
<defs
 id="defs4" />
<metadata
 id="metadata7">
<rdf:RDF>
<cc:Work
 rdf:about="">
<dc:format>image/svg+xml</dc:format>
<dc:type
 rdf:resource="http://purl.org/dc/dcmitype/StillImage" />
<dc:title></dc:title>
</cc:Work>
</rdf:RDF>
</metadata>
<path
 style="color:#000000;display:inline;overflow:visible;visibility:visible;fill:#ffffff;fill-opacity:1;fill-rule:nonzero;stroke:none;stroke-width:10;stroke-linecap:square;stroke-miterlimit:4;stroke-dasharray:none;stroke-opacity:1;marker:none;enable-background:accumulate"
 d="M -41.006531,39.000465 -33.006996,47 -22.006528,35.999535 -11.006058,47 -3.006531,39.000465 -14.006989,28 -3.006531,16.999535 -11.006058,9 -22.006528,20.000465 -33.006996,9 -41.006531,16.999535 -30.006066,28 -41.006531,39.000465 Z"
 id="path3344" />
<g
 id="g3356">
<path
 style="color:#000000;display:inline;overflow:visible;visibility:visible;opacity:1;fill:#000000;fill-opacity:1;fill-rule:nonzero;marker:none;enable-background:accumulate"
 d="M 0 0 L 0 56 L 94 56 L 94 0 L 0 0 z "
 id="rect3339" />
<g
 id="g3352">
<path
 style="color:#000000;display:inline;overflow:visible;visibility:visible;fill:#ffffff;fill-opacity:1;fill-rule:nonzero;stroke:none;stroke-width:10;stroke-linecap:square;stroke-miterlimit:4;stroke-dasharray:none;stroke-opacity:1;marker:none;enable-background:accumulate"
 d="M 3.000003,39.000465 10.99953,47 21.999998,35.999535 33.000476,47 41.000003,39.000465 29.999543,28 41.000003,16.999535 33.000476,9 21.999998,20.000465 10.99953,9 3.000003,16.999535 14.000461,28 3.000003,39.000465 Z"
 id="path3342" />
<path
 style="color:#000000;display:inline;overflow:visible;visibility:visible;fill:#ffffff;fill-opacity:1;fill-rule:nonzero;stroke:none;stroke-width:10;stroke-linecap:square;stroke-miterlimit:4;stroke-dasharray:none;stroke-opacity:1;marker:none;enable-background:accumulate"
 d="M 47.00653,39.000465 55.00606,47 66.00653,35.999535 77.00701,47 85.00653,39.000465 74.00607,28 85.00653,16.999535 77.00701,9 66.00653,20.000465 55.00606,9 47.00653,16.999535 58.007,28 47.00653,39.000465 Z"
 id="path6986" />
</g>
</g>
</svg>
