<svg xmlns="http://www.w3.org/2000/svg" width="144" height="56">
  <g fill="#fff">
    <polygon points="22.293 31.3 24.693 33.7 27.993 30.4 31.294 33.7 33.693 31.3 30.393 28 33.693 24.7 31.294 22.3 27.993 25.6 24.693 22.3 22.293 24.7 25.594 28 22.293 31.3"/>
    <polygon points="66.3 31.3 68.7 33.7 72 30.4 75.3 33.7 77.7 31.3 74.4 28 77.7 24.7 75.3 22.3 72 25.6 68.7 22.3 66.3 24.7 69.6 28 66.3 31.3"/>
    <polygon points="110.307 31.3 112.706 33.7 116.007 30.4 119.307 33.7 121.707 31.3 118.406 28 121.707 24.7 119.307 22.3 116.007 25.6 112.706 22.3 110.307 24.7 113.607 28 110.307 31.3"/>
  </g>
</svg>
