<svg xmlns="http://www.w3.org/2000/svg" width="144" height="56">
  <g fill="#ffffff">
    <polygon points="18.493 33.5 22.493 37.5 27.993 32 33.494 37.5 37.493 33.5 31.993 28 37.493 22.5 33.494 18.5 27.993 24 22.493 18.5 18.493 22.5 23.994 28 18.493 33.5"/>
    <polygon points="62.5 33.5 66.5 37.5 72 32 77.5 37.5 81.5 33.5 76 28 81.5 22.5 77.5 18.5 72 24 66.5 18.5 62.5 22.5 68 28 62.5 33.5"/>
    <polygon points="106.507 33.5 110.506 37.5 116.007 32 121.507 37.5 125.507 33.5 120.006 28 125.507 22.5 121.507 18.5 116.007 24 110.506 18.5 106.507 22.5 112.007 28 106.507 33.5"/>
  </g>
</svg>
