<svg xmlns="http://www.w3.org/2000/svg" width="144" height="56">
  <rect width="144" height="56" fill="#000000"/>
  <g fill="#ffffff">
    <polygon points="12.793 36.8 19.193 43.2 27.993 34.4 36.794 43.2 43.193 36.8 34.393 28 43.193 19.2 36.794 12.8 27.993 21.6 19.193 12.8 12.793 19.2 21.594 28 12.793 36.8"/>
    <polygon points="56.8 36.8 63.2 43.2 72 34.4 80.8 43.2 87.2 36.8 78.4 28 87.2 19.2 80.8 12.8 72 21.6 63.2 12.8 56.8 19.2 65.6 28 56.8 36.8"/>
    <polygon points="100.807 36.8 107.206 43.2 116.007 34.4 124.807 43.2 131.207 36.8 122.406 28 131.207 19.2 124.807 12.8 116.007 21.6 107.206 12.8 100.807 19.2 109.607 28 100.807 36.8"/>
  </g>
</svg>
