<?xml version="1.0" encoding="UTF-8" standalone="no"?>
<svg
 xmlns:dc="http://purl.org/dc/elements/1.1/"
 xmlns:cc="http://creativecommons.org/ns#"
 xmlns:rdf="http://www.w3.org/1999/02/22-rdf-syntax-ns#"
 xmlns:svg="http://www.w3.org/2000/svg"
 xmlns="http://www.w3.org/2000/svg"
 version="1.1"
 id="svg2"
 height="56"
 width="144">
<defs
 id="defs4" />
<metadata
 id="metadata7">
<rdf:RDF>
<cc:Work
 rdf:about="">
<dc:format>image/svg+xml</dc:format>
<dc:type
 rdf:resource="http://purl.org/dc/dcmitype/StillImage" />
<dc:title></dc:title>
</cc:Work>
</rdf:RDF>
</metadata>
<rect
 style="color:#000000;display:inline;overflow:visible;visibility:visible;opacity:1;fill:#000000;fill-opacity:1;fill-rule:nonzero;marker:none;enable-background:accumulate"
 id="rect6274"
 width="144"
 height="56.000008"
 x="-4.0698242e-07"
 y="-4.2188475e-15" />
<path
 style="color:#000000;display:inline;overflow:visible;visibility:visible;fill:#ffffff;fill-opacity:1;fill-rule:nonzero;stroke:none;stroke-width:10;stroke-linecap:square;stroke-miterlimit:4;stroke-dasharray:none;stroke-opacity:1;marker:none;enable-background:accumulate"
 d="M 12.793469,36.800372 19.193097,43.2 27.993471,34.399628 36.793847,43.2 43.193469,36.800372 34.393103,28 43.193469,19.199628 36.793847,12.8 27.993471,21.600372 19.193097,12.8 12.793469,19.199628 21.593841,28 12.793469,36.800372 Z"
 id="path3344" />
<path
 style="color:#000000;display:inline;overflow:visible;visibility:visible;fill:#ffffff;fill-opacity:1;fill-rule:nonzero;stroke:none;stroke-width:10;stroke-linecap:square;stroke-miterlimit:4;stroke-dasharray:none;stroke-opacity:1;marker:none;enable-background:accumulate"
 d="M 56.800003,36.800372 63.199625,43.2 71.999999,34.399628 80.800381,43.2 87.200003,36.800372 78.399635,28 87.200003,19.199628 80.800381,12.8 71.999999,21.600372 63.199625,12.8 56.800003,19.199628 65.600369,28 56.800003,36.800372 Z"
 id="path3342" />
<path
 style="color:#000000;display:inline;overflow:visible;visibility:visible;fill:#ffffff;fill-opacity:1;fill-rule:nonzero;stroke:none;stroke-width:10;stroke-linecap:square;stroke-miterlimit:4;stroke-dasharray:none;stroke-opacity:1;marker:none;enable-background:accumulate"
 d="M 100.80653,36.800372 107.20615,43.2 116.00653,34.399628 124.80691,43.2 131.20653,36.800372 122.40616,28 131.20653,19.199628 124.80691,12.8 116.00653,21.600372 107.20615,12.8 100.80653,19.199628 109.60691,28 l -8.80038,8.800372 z"
 id="path6986" />
</svg>
