<?xml version="1.0" encoding="UTF-8" standalone="no"?>
<svg
 xmlns:dc="http://purl.org/dc/elements/1.1/"
 xmlns:cc="http://creativecommons.org/ns#"
 xmlns:rdf="http://www.w3.org/1999/02/22-rdf-syntax-ns#"
 xmlns:svg="http://www.w3.org/2000/svg"
 xmlns="http://www.w3.org/2000/svg"
 width="180"
 height="60"
 id="svg2"
 version="1.1">
<defs
 id="defs4" />
<metadata
 id="metadata7">
<rdf:RDF>
<cc:Work
 rdf:about="">
<dc:format>image/svg+xml</dc:format>
<dc:type
 rdf:resource="http://purl.org/dc/dcmitype/StillImage" />
<dc:title></dc:title>
</cc:Work>
</rdf:RDF>
</metadata>
<rect
 y="6.0156249e-06"
 x="-100"
 height="60"
 width="180"
 id="rect6274"
 style="color:#000000;display:inline;overflow:visible;visibility:visible;opacity:1;fill:#000000;fill-opacity:1;fill-rule:nonzero;marker:none;enable-background:accumulate" />
<path
 id="path3361"
 d="m -37.155518,34.350768 -1.133046,-12.950773 -17.809104,1.558093 -1.558098,-17.8091053 -12.950765,1.1330523 1.558086,17.809096 -17.809094,1.558101 1.133038,12.950767 17.809106,-1.558092 1.558096,17.809104 12.950773,-1.133046 -1.558094,-17.809102 17.809102,-1.558095 z"
 style="color:#000000;display:inline;overflow:visible;visibility:visible;fill:#ffffff;fill-opacity:1;fill-rule:nonzero;stroke:none;stroke-width:10;stroke-linecap:square;stroke-miterlimit:4;stroke-dasharray:none;stroke-opacity:1;marker:none;enable-background:accumulate" />
<path
 id="path3359"
 d="M 14.851013,34.350766 13.717975,21.399999 -4.0911275,22.958094 -5.6492297,5.1489849 -18.599995,6.2820372 l 1.558087,17.8090958 -17.809095,1.558101 1.133038,12.950767 17.80911,-1.558088 1.558095,17.809102 12.9507652,-1.133052 -1.5580869,-17.809096 17.8090947,-1.558101 z"
 style="color:#000000;display:inline;overflow:visible;visibility:visible;fill:#ffffff;fill-opacity:1;fill-rule:nonzero;stroke:none;stroke-width:10;stroke-linecap:square;stroke-miterlimit:4;stroke-dasharray:none;stroke-opacity:1;marker:none;enable-background:accumulate" />
<path
 id="path6986"
 d="M 66.857542,34.350769 65.724496,21.399996 47.915394,22.95809 46.357291,5.1489817 33.406526,6.282034 34.964613,24.09113 17.155518,25.649231 18.288556,38.599998 36.097666,37.04191 37.655761,54.851012 50.606534,53.717966 49.04844,35.908864 66.857542,34.350769 Z"
 style="color:#000000;display:inline;overflow:visible;visibility:visible;fill:#ffffff;fill-opacity:1;fill-rule:nonzero;stroke:none;stroke-width:10;stroke-linecap:square;stroke-miterlimit:4;stroke-dasharray:none;stroke-opacity:1;marker:none;enable-background:accumulate" />
</svg>
