<?xml version="1.0" encoding="UTF-8" standalone="no"?>
<svg
 xmlns:dc="http://purl.org/dc/elements/1.1/"
 xmlns:cc="http://creativecommons.org/ns#"
 xmlns:rdf="http://www.w3.org/1999/02/22-rdf-syntax-ns#"
 xmlns:svg="http://www.w3.org/2000/svg"
 xmlns="http://www.w3.org/2000/svg"
 width="180"
 height="60"
 id="svg2"
 version="1.1">
<defs
 id="defs4" />
<metadata
 id="metadata7">
<rdf:RDF>
<cc:Work
 rdf:about="">
<dc:format>image/svg+xml</dc:format>
<dc:type
 rdf:resource="http://purl.org/dc/dcmitype/StillImage" />
<dc:title></dc:title>
</cc:Work>
</rdf:RDF>
</metadata>
<rect
 y="6.0156249e-06"
 x="-30"
 height="60"
 width="180"
 id="rect6274"
 style="color:#000000;display:inline;overflow:visible;visibility:visible;opacity:1;fill:#000000;fill-opacity:1;fill-rule:nonzero;marker:none;enable-background:accumulate" />
<path
 id="path3342"
 d="M -0.60653342,53.717965 12.34424,54.851011 13.902336,37.041907 31.711442,38.599999 32.84448,25.649232 15.035386,24.091131 16.593472,6.282035 3.6427069,5.1489827 2.0846085,22.958088 -15.724495,21.399995 -16.857541,34.350768 0.95156114,35.908863 -0.60653342,53.717965 Z"
 style="color:#000000;display:inline;overflow:visible;visibility:visible;fill:#ffffff;fill-opacity:1;fill-rule:nonzero;stroke:none;stroke-width:10;stroke-linecap:square;stroke-miterlimit:4;stroke-dasharray:none;stroke-opacity:1;marker:none;enable-background:accumulate" />
<path
 id="path3340"
 d="m 51.400003,53.717963 12.950765,1.133052 1.558095,-17.809102 17.80911,1.558088 L 84.851011,25.649234 67.041916,24.091133 68.600003,6.2820372 55.649238,5.1489849 54.091136,22.958094 36.282033,21.399999 35.148995,34.350766 52.95809,35.908867 51.400003,53.717963 Z"
 style="color:#000000;display:inline;overflow:visible;visibility:visible;fill:#ffffff;fill-opacity:1;fill-rule:nonzero;stroke:none;stroke-width:10;stroke-linecap:square;stroke-miterlimit:4;stroke-dasharray:none;stroke-opacity:1;marker:none;enable-background:accumulate" />
<path
 id="path6986"
 d="m 103.40652,53.717967 12.95078,1.133045 1.55809,-17.809103 17.80911,1.558088 1.13304,-12.950767 -17.80909,-1.558101 1.55808,-17.8090956 -12.95076,-1.1330523 -1.5581,17.8091089 -17.809108,-1.558093 -1.133046,12.950773 17.809104,1.558093 -1.5581,17.809104 z"
 style="color:#000000;display:inline;overflow:visible;visibility:visible;fill:#ffffff;fill-opacity:1;fill-rule:nonzero;stroke:none;stroke-width:10;stroke-linecap:square;stroke-miterlimit:4;stroke-dasharray:none;stroke-opacity:1;marker:none;enable-background:accumulate" />
</svg>
