<?xml version="1.0" encoding="UTF-8" standalone="no"?>
<svg
 xmlns:dc="http://purl.org/dc/elements/1.1/"
 xmlns:cc="http://creativecommons.org/ns#"
 xmlns:rdf="http://www.w3.org/1999/02/22-rdf-syntax-ns#"
 xmlns:svg="http://www.w3.org/2000/svg"
 xmlns="http://www.w3.org/2000/svg"
 width="180"
 height="60"
 id="svg2"
 version="1.1">
<defs
 id="defs4" />
<metadata
 id="metadata7">
<rdf:RDF>
<cc:Work
 rdf:about="">
<dc:format>image/svg+xml</dc:format>
<dc:type
 rdf:resource="http://purl.org/dc/dcmitype/StillImage" />
<dc:title></dc:title>
</cc:Work>
</rdf:RDF>
</metadata>
<path
 style="color:#000000;display:inline;overflow:visible;visibility:visible;fill:#ffffff;fill-opacity:1;fill-rule:nonzero;stroke:none;stroke-width:10;stroke-linecap:square;stroke-miterlimit:4;stroke-dasharray:none;stroke-opacity:1;marker:none;enable-background:accumulate"
 d="m 33.62675,32.528208 1.838512,1.838512 2.528208,-2.528208 2.528209,2.528208 1.83851,-1.838512 L 39.831983,30 42.360189,27.471792 40.521679,25.63328 37.99347,28.161488 35.465262,25.63328 33.62675,27.471792 36.154958,30 33.62675,32.528208 Z"
 id="path3340" />
<path
 style="color:#000000;display:inline;overflow:visible;visibility:visible;fill:#ffffff;fill-opacity:1;fill-rule:nonzero;stroke:none;stroke-width:10;stroke-linecap:square;stroke-miterlimit:4;stroke-dasharray:none;stroke-opacity:1;marker:none;enable-background:accumulate"
 d="m 85.633285,32.528208 1.83851,1.838512 2.528208,-2.528208 2.52821,2.528208 1.83851,-1.838512 L 91.838517,30 94.366723,27.471792 92.528213,25.63328 90.000003,28.161488 87.471795,25.63328 85.633285,27.471792 88.161491,30 85.633285,32.528208 Z"
 id="path3338" />
<path
 style="color:#000000;display:inline;overflow:visible;visibility:visible;fill:#ffffff;fill-opacity:1;fill-rule:nonzero;stroke:none;stroke-width:10;stroke-linecap:square;stroke-miterlimit:4;stroke-dasharray:none;stroke-opacity:1;marker:none;enable-background:accumulate"
 d="m 137.63981,32.528208 1.83851,1.838512 2.52821,-2.528208 2.52821,2.528208 1.83851,-1.838512 L 143.84504,30 l 2.52821,-2.528208 -1.83851,-1.838512 -2.52821,2.528208 -2.52821,-2.528208 -1.83851,1.838512 2.52821,2.528208 -2.52821,2.528208 z"
 id="path6986" />
</svg>
