<?xml version="1.0" encoding="UTF-8" standalone="no"?>
<svg
 xmlns:dc="http://purl.org/dc/elements/1.1/"
 xmlns:cc="http://creativecommons.org/ns#"
 xmlns:rdf="http://www.w3.org/1999/02/22-rdf-syntax-ns#"
 xmlns:svg="http://www.w3.org/2000/svg"
 xmlns="http://www.w3.org/2000/svg"
 width="180"
 height="60"
 id="svg2"
 version="1.1">
<defs
 id="defs4" />
<metadata
 id="metadata7">
<rdf:RDF>
<cc:Work
 rdf:about="">
<dc:format>image/svg+xml</dc:format>
<dc:type
 rdf:resource="http://purl.org/dc/dcmitype/StillImage" />
<dc:title></dc:title>
</cc:Work>
</rdf:RDF>
</metadata>
<path
 id="path3342"
 d="m 29.26003,35.056416 3.677024,3.677024 5.056417,-5.056416 5.056418,5.056416 3.67702,-3.677024 L 41.670497,30 46.726909,24.943584 43.049889,21.26656 37.993471,26.322976 32.937054,21.26656 29.26003,24.943584 34.316446,30 29.26003,35.056416 Z"
 style="color:#000000;display:inline;overflow:visible;visibility:visible;fill:#ffffff;fill-opacity:1;fill-rule:nonzero;stroke:none;stroke-width:10;stroke-linecap:square;stroke-miterlimit:4;stroke-dasharray:none;stroke-opacity:1;marker:none;enable-background:accumulate" />
<path
 id="path3340"
 d="m 81.266566,35.056416 3.67702,3.677024 5.056416,-5.056416 5.05642,5.056416 3.67702,-3.677024 L 93.67703,30 98.733442,24.943584 95.056422,21.26656 90.000002,26.322976 84.943586,21.26656 81.266566,24.943584 86.322978,30 81.266566,35.056416 Z"
 style="color:#000000;display:inline;overflow:visible;visibility:visible;fill:#ffffff;fill-opacity:1;fill-rule:nonzero;stroke:none;stroke-width:10;stroke-linecap:square;stroke-miterlimit:4;stroke-dasharray:none;stroke-opacity:1;marker:none;enable-background:accumulate" />
<path
 id="path6986"
 d="m 133.27309,35.056416 3.67702,3.677024 5.05642,-5.056416 5.05642,5.056416 3.67702,-3.677024 L 145.68356,30 l 5.05641,-5.056416 -3.67702,-3.677024 -5.05642,5.056416 -5.05642,-5.056416 -3.67702,3.677024 5.05642,5.056416 -5.05642,5.056416 z"
 style="color:#000000;display:inline;overflow:visible;visibility:visible;fill:#ffffff;fill-opacity:1;fill-rule:nonzero;stroke:none;stroke-width:10;stroke-linecap:square;stroke-miterlimit:4;stroke-dasharray:none;stroke-opacity:1;marker:none;enable-background:accumulate" />
</svg>
