<?xml version="1.0" encoding="UTF-8" standalone="no"?>
<svg
 xmlns:dc="http://purl.org/dc/elements/1.1/"
 xmlns:cc="http://creativecommons.org/ns#"
 xmlns:rdf="http://www.w3.org/1999/02/22-rdf-syntax-ns#"
 xmlns:svg="http://www.w3.org/2000/svg"
 xmlns="http://www.w3.org/2000/svg"
 width="180"
 height="60"
 id="svg2"
 version="1.1">
<defs
 id="defs4" />
<metadata
 id="metadata7">
<rdf:RDF>
<cc:Work
 rdf:about="">
<dc:format>image/svg+xml</dc:format>
<dc:type
 rdf:resource="http://purl.org/dc/dcmitype/StillImage" />
<dc:title></dc:title>
</cc:Work>
</rdf:RDF>
</metadata>
<g
 id="g3366">
<path
 style="color:#000000;display:inline;overflow:visible;visibility:visible;opacity:1;fill:#000000;fill-opacity:1;fill-rule:nonzero;marker:none;enable-background:accumulate"
 d="M 0 0 L 0 60 L 120 60 L 120 0 L 0 0 z "
 id="rect3356" />
<path
 style="color:#000000;display:inline;overflow:visible;visibility:visible;opacity:1;fill:#ffffff;fill-opacity:1;fill-rule:nonzero;marker:none;enable-background:accumulate"
 d="M 17.359375 8.1660156 L 8.1660156 17.359375 L 20.806641 30 L 8.1660156 42.640625 L 17.359375 51.833984 L 30 39.193359 L 42.640625 51.833984 L 51.833984 42.640625 L 39.193359 30 L 51.833984 17.359375 L 42.640625 8.1660156 L 30 20.806641 L 17.359375 8.1660156 z M 69.365234 8.1660156 L 60.173828 17.359375 L 72.814453 30 L 60.173828 42.640625 L 69.365234 51.833984 L 82.005859 39.193359 L 94.648438 51.833984 L 103.83984 42.640625 L 91.199219 30 L 103.83984 17.359375 L 94.648438 8.1660156 L 82.005859 20.806641 L 69.365234 8.1660156 z "
 id="rect3354" />
</g>
</svg>
