<?xml version="1.0" encoding="UTF-8" standalone="no"?>
<svg
 xmlns:dc="http://purl.org/dc/elements/1.1/"
 xmlns:cc="http://creativecommons.org/ns#"
 xmlns:rdf="http://www.w3.org/1999/02/22-rdf-syntax-ns#"
 xmlns:svg="http://www.w3.org/2000/svg"
 xmlns="http://www.w3.org/2000/svg"
 version="1.1"
 id="svg2"
 height="60"
 width="180">
<defs
 id="defs4" />
<metadata
 id="metadata7">
<rdf:RDF>
<cc:Work
 rdf:about="">
<dc:format>image/svg+xml</dc:format>
<dc:type
 rdf:resource="http://purl.org/dc/dcmitype/StillImage" />
<dc:title></dc:title>
</cc:Work>
</rdf:RDF>
</metadata>
<g
 id="g3335">
<path
 id="rect6274"
 d="M 0 0 L 0 60 L 165 60 L 165 0 L 0 0 z "
 style="color:#000000;display:inline;overflow:visible;visibility:visible;opacity:1;fill:#000000;fill-opacity:1;fill-rule:nonzero;marker:none;enable-background:accumulate" />
<path
 id="path6986"
 d="M 1.159871,42.64104 10.352431,51.8336 22.993473,39.19256 35.634518,51.8336 44.827068,42.64104 32.186038,30 44.827068,17.35896 35.634518,8.1664 22.993473,20.80744 10.352431,8.1664 1.159871,17.35896 13.800911,30 1.159871,42.64104 Z m 52.006537,0 9.19255,9.19256 L 74.999998,39.19256 87.64105,51.8336 96.8336,42.64104 84.192568,30 96.8336,17.35896 87.64105,8.1664 74.999998,20.80744 62.358958,8.1664 53.166408,17.35896 65.807438,30 53.166408,42.64104 Z m 52.006522,0 9.19256,9.19256 12.64104,-12.64104 12.64105,12.64104 9.19255,-9.19256 L 136.1991,30 148.84013,17.35896 139.64758,8.1664 127.00653,20.80744 114.36549,8.1664 105.17293,17.35896 117.81397,30 105.17293,42.64104 Z"
 style="color:#000000;display:inline;overflow:visible;visibility:visible;fill:#ffffff;fill-opacity:1;fill-rule:nonzero;stroke:none;stroke-width:10;stroke-linecap:square;stroke-miterlimit:4;stroke-dasharray:none;stroke-opacity:1;marker:none;enable-background:accumulate" />
</g>
</svg>
