<?xml version="1.0" encoding="UTF-8" standalone="no"?>
<!-- Created with Inkscape (http://www.inkscape.org/) -->

<svg
 xmlns:dc="http://purl.org/dc/elements/1.1/"
 xmlns:cc="http://creativecommons.org/ns#"
 xmlns:rdf="http://www.w3.org/1999/02/22-rdf-syntax-ns#"
 xmlns:svg="http://www.w3.org/2000/svg"
 xmlns="http://www.w3.org/2000/svg"
 xmlns:sodipodi="http://sodipodi.sourceforge.net/DTD/sodipodi-0.dtd"
 xmlns:inkscape="http://www.inkscape.org/namespaces/inkscape"
 width="180"
 height="60"
 id="svg2"
 version="1.1"
 inkscape:version="0.91 r"
 sodipodi:docname="xxx.svg">
<defs
 id="defs4" />
<sodipodi:namedview
 id="base"
 pagecolor="#ffffff"
 bordercolor="#666666"
 borderopacity="1.0"
 inkscape:pageopacity="0"
 inkscape:pageshadow="2"
 inkscape:zoom="3.6203867"
 inkscape:cx="113.9448"
 inkscape:cy="21.520951"
 inkscape:document-units="px"
 inkscape:current-layer="layer1"
 showgrid="true"
 inkscape:window-width="1366"
 inkscape:window-height="717"
 inkscape:window-x="-2"
 inkscape:window-y="-3"
 inkscape:window-maximized="1"
 inkscape:snap-bbox="true"
 inkscape:snap-global="true"
 fit-margin-top="50"
 fit-margin-left="50"
 fit-margin-right="50"
 fit-margin-bottom="50"
 inkscape:snap-nodes="true"
 inkscape:bbox-paths="false"
 inkscape:bbox-nodes="true">
<inkscape:grid
 type="xygrid"
 id="grid3961"
 units="px"
 empspacing="10"
 visible="true"
 enabled="true"
 snapvisiblegridlinesonly="true"
 spacingx="1"
 empcolor="#ff0000"
 empopacity="0.25098039"
 spacingy="1"
 originx="0"
 originy="0" />
</sodipodi:namedview>
<metadata
 id="metadata7">
<rdf:RDF>
<cc:Work
 rdf:about="">
<dc:format>image/svg+xml</dc:format>
<dc:type
 rdf:resource="http://purl.org/dc/dcmitype/StillImage" />
<dc:title></dc:title>
</cc:Work>
</rdf:RDF>
</metadata>
<g
 inkscape:label="Layer 1"
 inkscape:groupmode="layer"
 id="layer1"
 transform="translate(-34.228352,-749.42016)">
<rect
 style="color:#000000;display:inline;overflow:visible;visibility:visible;opacity:1;fill:#000000;fill-opacity:1;fill-rule:nonzero;marker:none;enable-background:accumulate"
 id="rect6274"
 width="180"
 height="60"
 x="34.228352"
 y="749.42017" />
<path
 style="color:#000000;display:inline;overflow:visible;visibility:visible;fill:#ffffff;fill-opacity:1;fill-rule:nonzero;stroke:none;stroke-width:10;stroke-linecap:square;stroke-miterlimit:4;stroke-dasharray:none;stroke-opacity:1;marker:none;enable-background:accumulate"
 d="m 50.388223,792.0612 9.19256,9.19256 12.641042,-12.64104 12.641045,12.64104 9.19255,-9.19256 -12.64103,-12.64104 12.64103,-12.64104 -9.19255,-9.19256 -12.641045,12.64104 -12.641042,-12.64104 -9.19256,9.19256 12.64104,12.64104 -12.64104,12.64104 z m 52.006537,0 9.19255,9.19256 12.64104,-12.64104 12.64105,12.64104 9.19255,-9.19256 -12.64103,-12.64104 12.64103,-12.64104 -9.19255,-9.19256 -12.64105,12.64104 -12.64104,-12.64104 -9.19255,9.19256 12.64103,12.64104 -12.64103,12.64104 z m 52.00652,0 9.19256,9.19256 12.64104,-12.64104 12.64105,12.64104 9.19255,-9.19256 -12.64103,-12.64104 12.64103,-12.64104 -9.19255,-9.19256 -12.64105,12.64104 -12.64104,-12.64104 -9.19256,9.19256 12.64104,12.64104 -12.64104,12.64104 z"
 id="path6986"
 inkscape:connector-curvature="0" />
</g>
</svg>
